<svg viewBox="0 0 575 575">
    <svg xmlns="http://www.w3.org/2000/svg" viewBox="0 0 131.165 191.073" height="179.99" width="123.557" y="171.82"
        x="225.722" preserveAspectRatio="xMinYMin"
        style="position:absolute;height:179.99px;width:123.557px;top:171.82px;left:225.722px">
        <path
            d="M121.55 145.24c-16.64-14.37-47.28-10.67-47.28-10.67 10.61-3 15.27-12.66 15.27-12.66-4.3 4.22-15.73 2.6-15.73 2.6 3-1.43.82-5.66.82-5.66s.92 5.12-5.39 4-2.66-8.45-2.66-8.45c-3.93 1.26-2.83 6.47-2.83 6.47-4.57-3.59-.64-9.07-.64-9.07-5.4 2.15-3.75 8-3.75 8-3.29-.9-3.39-5.66-3.39-5.66-4.2 13.59 18.39 14.38 18.39 14.38-3.66 2.24-19.21 2.51-24.79-2.16s-1.46-16.89 10.52-17.61c5.22-.31 14-1.41 18.35-3.75 4.63-2.39 6-7.72 6-7.72a71.31 71.31 0 01-1 10 29.22 29.22 0 01-1.35 5c4.44-.94 16.93-8.94 16.93-8.94.5 4.45 6.12 4.72 6.12 4.72s-4.25-4.09-.09-7.59 10.43 2.24 10.43 2.24c-.5-6.65-8.28-6.56-8.28-6.56 4.2-2.83 9.51-.13 9.51-.13-3.38-5.84-10.38-3.14-10.38-3.14.28-2.61 6.45-2.83 6.45-2.83-10.43-3.42-13.4 5.3-14.63 7.45s-8 4-8 4 1.46-2.87 1.83-16.88S76.19 58 70.52 53 56.43 35.81 68 32.46s18.59 2.82 18.59 2.82C74.28 31.8 68 37 68 37c17.8-.36 24.2 9.64 24.2 9.64a18.94 18.94 0 01-6.34-1.73s10.49 10.06 19 10.52 7.81-5.1 7.81-5.1c-9.36 3.74-17-10.06-14.7-11.41s6.65 6.23 9.68 8.11 5-.62 7.21 2-.27 5.31-.27 5.31 6.49-2 5.49-7.37-5-3.86-9.15-7.09-3.93-10.68-4.65-15.26-5.22-9.53-11.28-11.77c0 0 2.74 3.92 2.74 6.43C84.11 13.54 87.28 0 87.28 0c-3.41 4-2.92 11.14-2.92 11.14C53.87-2.52 37.9 12.22 37.9 12.22a41.14 41.14 0 0129-.72C54 9.82 46.07 15.21 46.07 15.21c10.85-.72 13 1.08 13 1.08C38.38 18 30.7 36.17 30.7 36.17c1.59-2.75 8.9-6.17 8.9-6.17-6 7.54-3.78 14.49-3.78 14.49.49-4.07 6-9.34 6-9.34-1.47 5.87.12 14.37 6 20.84s8.78 10.42 7.69 17.37-15.25 9.82-15.25 9.82l2.32-3.83c10-17.85-.37-23.92-.37-23.92 1.71 1.61 1.22 7 1.22 7-1.09-5.27-7.92-8-7.92-8 2.92 2 4.87 8.27 4.87 8.27a18.39 18.39 0 00-12.56-7.27s8.91 5.23 10.49 12.54-8.17 7.18-8.17 7.18c2.81 3.6 8.78.24 8.78.24-1.1 6.35-11.95 14.74-11.95 14.74l14.92-2c-9.65 4-20.66 11.07-26.14 23.57C4.73 136.67 26 157.3 26 157.3a19.32 19.32 0 00-8.32.63c-.27-11.14-10.33-14-10.33-14a16.6 16.6 0 014.57 6C7.23 146 0 145.18 0 145.18c8.6 3.77 9.42 7.54 9.42 7.54a23.88 23.88 0 00-7.32-2.15c18.84 11.31 4.3 19.85 4.3 19.85 8.69-.36 11.53-8.8 11.53-8.8 7.68-1.62 23.5.8 23.5.8a38 38 0 01-11.06-11.59c13.62 10.7 46 3.12 64 .88s38.59 10 22.77 25.71-40.42 5.31-40.42 5.31a71.21 71.21 0 0028.07-.81 12 12 0 01-8.5-5.21c-3.48-4.94-9.79-8.54-9.79-8.54 2.2 1.53 3.2 6.74 3.2 6.74-6.49-6.47-16.73-4.67-25-4.31s-15.36-8.45-15.36-8.45c.09 10.07 17.19 20.31 17.19 20.31A30.16 30.16 0 0156.8 180c10.79 12 34.39 13.54 54.87 8s26.53-28.39 9.88-42.76zM99.36 27.55a5.13 5.13 0 012.31 4.19 13.1 13.1 0 01-4.26-2.27c-2.08-1.68-2.69-5.63-2.69-5.63S98 27 99.36 27.55zM79.25 79.11a19.7 19.7 0 01-4.42 9.62 31.3 31.3 0 01-8 6.77 39.83 39.83 0 01-9.37 4.16c2.8-2 5.59-3.81 8.2-5.86a44.82 44.82 0 007.09-6.72 22.35 22.35 0 004.44-8.37 18 18 0 00-.11-9.71 14.26 14.26 0 012.17 10.11zm-8.91-62.57c1.38 0 2.77-.05 4.17 0s2.79.1 4.19.22a38.36 38.36 0 015.52.85l-.52-.49A21.32 21.32 0 0080.79 15c-.53-.3-1-.62-1.6-.87l-.83-.4-.85-.35c-.57-.26-1.16-.41-1.75-.63s-1.19-.33-1.79-.51c.62.06 1.24.11 1.87.2s1.24.2 1.85.37a20.16 20.16 0 013.6 1.19 18.25 18.25 0 013.33 2 14.8 14.8 0 012.9 2.72l1.59 2-2.59-.65a40.72 40.72 0 00-8-1c-1.13 0-2.26-.06-3.4-.06l.45.27c1.49.94 3 1.95 4.37 3a37.26 37.26 0 014.08 3.49 16.1 16.1 0 013.36 4.5l1.92 4.14-3.6-2.8a8.87 8.87 0 00-1-.65q-.52-.31-1.08-.6a18.78 18.78 0 00-2.31-1 22.89 22.89 0 00-4.94-1.14 26 26 0 00-5.15-.11 35.47 35.47 0 00-5.19.75 27.69 27.69 0 015.08-1.57 25.23 25.23 0 015.36-.49 23.13 23.13 0 015.4.76l.75.24-.33-.31a48.49 48.49 0 00-3.91-3.19c-1.37-1-2.79-1.95-4.24-2.85S71.3 19.72 69.79 19l-4.57-2.4zm-15 10.76a9.45 9.45 0 013-2.7 12.08 12.08 0 013.62-1.28 16.16 16.16 0 017.26.2 39.73 39.73 0 00-6.71 1.78 13.24 13.24 0 00-2.87 1.42 8.37 8.37 0 00-2.13 2.11 11.37 11.37 0 00-2 5.86 22.74 22.74 0 00.76 6.79 12.63 12.63 0 01-2.82-6.74 11 11 0 011.86-7.44zm-6.2 118.41l4.94 5S42.71 147 40 143.74l.91 5.21s-9-9-10.42-13.23l-.74 6S23 127.21 26.62 117c0 0-4.58 3-4.76 4.49 0 0 1.83-15.63 18.84-21.74l-2.93-2.88S52.22 93.61 57 91.09l-6.6-1.25S68 85.34 67.77 75.1c0 0-3.29 3.06-4.94 3.42 0 0 3.48-9.71-.73-18.15L60 66.6C58.87 60.49 50.82 49 50.82 49l-.61 4.95c-13.6-20.51-1.1-30.06-1.1-30.06s-8 8.86 1.29 18 24 23.36 22.31 33.24-8.23 17.79-28 27-14.08 28.52-5.85 33.67 19.05 13.67 44.63 14.85a87 87 0 01-34.38-4.94zm45.83.1c-1.68.07-3.35.06-5 0-3.35-.1-6.68-.35-10-.72a119.51 119.51 0 01-19.78-3.68 47.79 47.79 0 01-9.37-4.07 45.1 45.1 0 01-8.2-6.05 26.33 26.33 0 01-3.45-3.84 16 16 0 01-2.34-4.65 11.47 11.47 0 01-.29-5.17 8.26 8.26 0 012.29-4.47 8.52 8.52 0 00-1.57 4.56 10.68 10.68 0 00.74 4.68 19.5 19.5 0 005.93 7.38A49.63 49.63 0 0052 135.2a47.21 47.21 0 008.93 3.73c3.09 1 6.32 1.66 9.55 2.33s6.48 1.24 9.74 1.82 6.53 1.06 9.81 1.47c1.65.22 3.29.39 4.94.53.82.07 1.65.12 2.47.13a16 16 0 002.49-.08 22 22 0 01-4.99.68zM74.53 176.9a44.73 44.73 0 01-6.78-.28 12.18 12.18 0 01-3.41-1 8.07 8.07 0 01-1.51-1 5.75 5.75 0 01-1.17-1.3 11.83 11.83 0 006.24 1.23c2.12 0 4.34-.28 6.61-.29a22.12 22.12 0 016.9.86 10.77 10.77 0 015.74 3.9c-4.07-2.12-8.24-2.17-12.62-2.12z"
            fill="#344a66" />
    </svg>
    <svg xmlns="http://www.w3.org/2000/svg" y="376.82" viewBox="1.56 7.14 149.08 26.36" x="212.96" height="26.36"
        width="149.08" style="position:absolute;top:376.82px;width:149.08px;height:26.36px;left:212.96px">
        <path
            d="M28.63 33.15l-.08.16q-.28 0-.9-.04t-1.29-.08q-.66-.04-1.28-.08-.63-.04-.9-.04h-2.3q-.27 0-.9.04-.62.04-1.28.08-.67.04-1.29.08-.63.04-.9.04l-.08-.16.12-1.48.16-.16q.62 0 1.17-.06.54-.05.93-.33.35-.27.55-.7.19-.43.39-1.52.04-.27.06-.64.02-.37.04-.92.01-.55.01-1.33v-5.07H9.32v4.62q0 .88.02 1.47.02.58.04.99.02.41.06.88.08 1.09.35 1.52.27.43.58.7.35.28.92.33.57.06 1.19.06l.16.16.11 1.48-.07.16q-.28 0-.9-.04l-1.29-.08-1.29-.08q-.62-.04-.89-.04h-2.3q-.28 0-.9.04t-1.29.08q-.66.04-1.28.08-.63.04-.9.04l-.08-.16.12-1.48.19-.16q.63 0 1.17-.06.55-.05.9-.33.31-.27.6-.7.3-.43.37-1.52 0-.27.02-.64t.04-.92q.02-.55.02-1.33V15.41q0-.94-.02-1.6-.02-.67-.04-1.13-.02-.47-.05-.94-.08-1.01-.36-1.48-.27-.47-.58-.74-.35-.28-.9-.34-.54-.05-1.17-.05l-.19-.16-.12-1.48.08-.16q.27 0 .9.04.62.04 1.28.08.67.04 1.29.08t.9.04h2.3q.27 0 .89-.04l1.29-.08 1.29-.08q.62-.04.9-.04l.07.16-.11 1.48-.16.16q-.55 0-1.15.05-.61.06-.96.34-.31.27-.6.7-.29.43-.33 1.52-.04.55-.06 1.01-.02.47-.04 1.1-.02.62-.02 1.52v2.69h11.54v-2.65q0-.94-.01-1.6-.02-.67-.04-1.13-.02-.47-.06-.94-.08-1.09-.35-1.52-.28-.43-.59-.7-.35-.28-.91-.34-.57-.05-1.19-.05l-.16-.16-.12-1.48.08-.16q.27 0 .9.04.62.04 1.29.08.66.04 1.28.08.63.04.9.04h2.3q.27 0 .9-.04.62-.04 1.28-.08.67-.04 1.29-.08t.9-.04l.08.16-.12 1.48-.2.16q-.62 0-1.19.05-.56.06-.87.34-.32.27-.57.7-.25.43-.41 1.52-.04.55-.06 1.01-.02.47-.02 1.1v13.18q0 .58.02.99.02.41.06.88.08 1.09.37 1.52.29.43.61.7.35.28.89.33.55.06 1.17.06l.2.16.12 1.48zM47.3 7.14q3.01 0 5.35 1.05t3.94 2.87q1.59 1.81 2.43 4.19.84 2.38.84 4.99 0 2.58-.82 4.97-.82 2.4-2.43 4.24-1.62 1.83-4.02 2.94-2.4 1.11-5.56 1.11-3.04 0-5.34-1.05t-3.84-2.83q-1.54-1.77-2.32-4.13-.78-2.36-.78-4.98 0-2.76.85-5.2.86-2.44 2.46-4.25 1.6-1.82 3.94-2.87t5.3-1.05zm-.03 23.12q1.91 0 3.41-.8 1.5-.79 2.51-2.14 1.02-1.35 1.56-3.16.55-1.81.55-3.88 0-2.11-.57-3.92-.56-1.81-1.63-3.14-1.08-1.32-2.6-2.09-1.52-.76-3.43-.76-1.87 0-3.32.75-1.44.74-2.41 2.06-.98 1.33-1.49 3.14-.5 1.82-.5 3.92 0 2.34.58 4.19.59 1.86 1.64 3.14 1.05 1.29 2.5 1.99 1.44.7 3.2.7zM78.58 7.14h.43l6.71 17.7q.35.98.62 1.64.27.66.45 1.13.17.47.31.76.14.3.25.53.47.97.96 1.5t.97.78q.49.25 1 .29.51.04 1.01.04l.2.16.11 1.48-.07.16q-.28 0-.82-.04-.55-.04-1.13-.08-.59-.04-1.11-.08-.53-.04-.8-.04h-2.85q-.27 0-.9.04-.62.04-1.3.08-.69.04-1.31.08-.62.04-.9.04l-.08-.16.12-1.48.16-.16q1.01 0 1.54-.25.52-.25.52-1.39 0-.62-.21-1.77-.22-1.15-1-2.87l-.81-1.87h-6.83l-.78 1.87q-.7 1.72-1.05 2.93-.35 1.21-.35 1.71 0 .94.39 1.29.39.35 1.4.35l.2.16.11 1.48-.08.16q-.27 0-.85-.04-.59-.04-1.23-.08-.65-.04-1.23-.08-.59-.04-.86-.04h-2.3q-.27 0-.82.04-.54.04-1.13.08-.58.04-1.11.08-.53.04-.8.04l-.04-.16.08-1.48.19-.16q.51 0 1.02-.08.5-.07 1.01-.35.51-.27 1-.76.48-.48.99-1.26.12-.24.35-.73.24-.48.74-1.73.51-1.25 1.41-3.55.89-2.3 2.38-6.12l3.35-8.62 2.77-1.17zm-1.48 6.47l-2.62 6.9h5.11l-2.49-6.9zm29.87 19.54l-.08.16q-.31-.04-.88-.08-.56-.04-1.21-.08-.64-.04-1.24-.06-.61-.02-1.04-.02h-2.3q-.47 0-1.09.02-.63.02-1.25.06-.62.04-1.19.08-.56.04-.84.08l-.08-.16.12-1.48.2-.16q1.48 0 2.02-.35.82-.54 1.02-2.26.04-.66.06-2.05.02-1.38.02-2.79v-8.58q0-1.36-.04-2.16t-.12-1.58q-.16-1.05-.33-1.52-.18-.47-.53-.74-.31-.2-.76-.28-.45-.07-1.34-.07l-.2-.16-.12-1.48.08-.16q1.02.12 2.01.18 1 .06 1.58.06h2.96q.9 0 2.05-.04t2.01-.04q4.64 0 7.02 1.73 2.38 1.74 2.38 5.17 0 2.46-1.42 4.47-1.43 2.01-4.24 3.49 1.33 1.99 2.25 3.23.91 1.25 1.58 1.99.89 1.06 1.67 1.76.78.7 1.54 1.17t1.58.7q.82.23 1.84.31l.23.16.08 1.48-.08.16q-1.48.07-2.57.13-1.1.06-1.6.06-2.07 0-3.69-1.15t-3.45-3.92q-.43-.62-.92-1.4-.48-.78-.97-1.54t-.92-1.47q-.43-.7-.7-1.2h-2.53v2.28q0 .95.02 1.65.01.71.05 1.21.04.51.08.94.16 1.79.86 2.26.27.2.7.27.43.08 1.44.08l.16.16.12 1.48zm-2.5-13.22h1.05q2.85 0 4.47-1.37 1.62-1.36 1.62-3.78 0-2.18-1.44-3.18-1.45-.99-4.61-.99h-1.83q-.12 1.56-.16 2.42-.03.85-.03 1.63v3.83q0 .82.19 1.13.2.31.74.31zm23.55-8.19q-.07-.98-.35-1.48-.27-.51-.62-.74-.35-.32-.72-.35-.37-.04-1.35-.04l-.19-.16-.12-1.48.08-.16q.27 0 .78.04t1.09.08q.59.04 1.15.08.57.04 1 .04h3.78q.47 0 1.19-.02t1.46-.06q.74-.04 1.42-.06.69-.02 1.15-.02 3.05 0 5.45 1.03 2.39 1.04 4.03 2.79 1.64 1.76 2.52 4.1.87 2.34.87 4.95 0 2.57-.83 4.89-.84 2.33-2.48 4.1-1.64 1.77-4.1 2.83-2.45 1.05-5.69 1.05-.31 0-.95-.02-.65-.02-1.37-.02-.72 0-1.4-.02-.69-.02-1.08-.02h-3.62q-.28 0-.9.04t-1.29.08q-.66.04-1.28.08-.63.04-.9.04l-.08-.16.12-1.48.19-.16q.47 0 1.09-.06.63-.05.98-.29.31-.23.58-.74.28-.51.39-1.52 0-.27.02-.64t.04-.92q.02-.55.02-1.33V14.82q0-.9-.02-1.75-.02-.86-.06-1.33zm6.44 18.29h1.79q2.34 0 4.14-.76 1.79-.76 3.02-2.09 1.23-1.32 1.87-3.1.65-1.77.65-3.8 0-2.11-.67-3.88-.66-1.77-1.93-3.06t-3.1-2.01q-1.83-.72-4.17-.72h-3.43q-.08 1.13-.1 1.89-.02.76-.06 1.54-.04.78-.04 1.7v7.15q0 2.34.02 3.65t.1 1.97q.12 1.01.51 1.27.39.25 1.4.25z"
            fill="#344a66" />
    </svg>
</svg>